<svg xmlns="http://www.w3.org/2000/svg" viewBox="0 0 525.288 126.903"><g id="Layer_2" data-name="Layer 2"><g id="connessioni_digitali_text" data-name="connessioni digitali_text"><rect x="298.43" y="61.163" width="226.858" height="65.74" rx="3.402" fill="#fff"/><rect width="525.288" height="73.378" rx="3.402" fill="#fff"/><path d="M365.655,83.557c1.7-2.01,2.455-2.939,2.292-3.446a1.739,1.739,0,0,0-1.117-.941,2.69,2.69,0,0,0-1.962-.1,6.93,6.93,0,0,0-.962,1.007l-.538.607h0c-.342-.35-.708-.7-1.065-1.009a18.268,18.268,0,0,0-9.227-4.28,5.616,5.616,0,0,0-4.967-1.876,5.442,5.442,0,0,0-3.706,2.511,20.534,20.534,0,0,0-9.157,5.8v0a4.224,4.224,0,0,0-2.555.47,1.3,1.3,0,0,0-.75.838c-.042.239.055.612,1.011,1.7h0A20.218,20.218,0,0,0,329.956,97.9a18.476,18.476,0,0,0,6.175,11.809,18.271,18.271,0,0,0,4,2.648,22.524,22.524,0,0,0,21-.742l.008-.006a1.143,1.143,0,0,0,.446-1.5l-.077-.175c-1.057-2.369-4.274-9.58-2.483-16.159.75-2.753,2.911-5.685,4.778-7.986h0a17.953,17.953,0,0,1,2.856,10.366,16.417,16.417,0,0,1-3.269,9.268.394.394,0,0,0-.059.4l.2.475a.389.389,0,0,0,.655.082h0A19.757,19.757,0,0,0,365.655,83.557ZM342.319,99.113a37.3,37.3,0,0,0-.477,10.97l0,0a18.568,18.568,0,0,1-3.8-2.558,18.25,18.25,0,0,1-6-10.525,16.928,16.928,0,0,1,1.813-11.18h0c.708.74,1.564,1.589,2.46,2.478a57.107,57.107,0,0,1,5.889,6.39c.7,1.015.482,2.3.119,4.427M361.388,82.8c-4.042,4.063-7.852,6.266-11.319,6.528a14.117,14.117,0,0,1-8.4-2.364,32.338,32.338,0,0,1-5.362-4.256L336.2,82.6h0a16.477,16.477,0,0,1,7.3-4.525v0h0a8.246,8.246,0,0,0-.167,3.445,7.782,7.782,0,0,0,2.976,5.1,5.224,5.224,0,0,0,7.539-1.186,7.779,7.779,0,0,0,1.268-5.769,8.827,8.827,0,0,0-.26-1.142h0a18.38,18.38,0,0,1,5.544,3.337c.337.293.67.607.994.933Z" transform="translate(-19.094)" fill="#ed1c24"/><path d="M429.305,93.617h-3.317v3.752a1.325,1.325,0,0,0,1.4,1.464,3.978,3.978,0,0,0,1.915-.533v2.071a6.478,6.478,0,0,1-2.644.576c-1.9,0-3.535-.87-3.535-3.417V93.617h-1.3v-.552l3.809-4.262h.356v2.86h3.317Zm39.161,3.044c-1.937.93-3.12,1.48-4.877,1.48-2.8,0-4.8-1.717-4.8-4.127,0-2.389,2.018-4.089,4.88-4.089a9.451,9.451,0,0,1,4.642,1.382v-3a9.482,9.482,0,0,0-4.879-1.186c-5.155,0-8.1,3.36-8.1,6.951,0,3.478,2.61,6.875,7.846,6.875a10.414,10.414,0,0,0,5.291-1.345Zm-69.874,2.916-2.037,1.363a2.712,2.712,0,0,1-1.779-1.125,3.567,3.567,0,0,1-2.7,1.125c-3.079,0-4.322-2.744-4.322-4.721,0-2.19,1.339-4.739,4.4-4.739a4.615,4.615,0,0,1,2.389.615v-.439h2.844V97.6C397.386,98.434,397.546,99.357,398.592,99.577Zm-4.067-5.668a3.1,3.1,0,0,0-1.661-.516c-1.618,0-2.171,1.719-2.171,3.024a2.221,2.221,0,0,0,2.227,2.467,2.3,2.3,0,0,0,1.6-.611Zm23.331,2.765h-6.539c.1,1.619,1.2,2.569,3,2.569a5.342,5.342,0,0,0,3.374-1.3v1.8a6.592,6.592,0,0,1-4.068,1.2c-3.2,0-5.272-1.855-5.272-4.7a4.593,4.593,0,0,1,4.8-4.756C415.8,91.48,418,93.356,417.856,96.674Zm-2.411-1.5a1.953,1.953,0,0,0-1.975-1.991,1.933,1.933,0,0,0-1.977,1.991Zm35.591,1.508H444.5c.1,1.619,1.206,2.569,3,2.569a5.362,5.362,0,0,0,3.382-1.3v1.8a6.608,6.608,0,0,1-4.073,1.2c-3.2,0-5.27-1.854-5.27-4.7a4.592,4.592,0,0,1,4.8-4.756C448.981,91.487,451.175,93.363,451.036,96.681Zm-2.527-1.5a1.954,1.954,0,0,0-1.979-1.99,1.93,1.93,0,0,0-1.973,1.99ZM433.728,87.3h-2.863v13.468h2.863V95.375a1.79,1.79,0,0,1,1.915-1.8c.889,0,1.48.635,1.48,2v5.191h2.868v-5.8a3.191,3.191,0,0,0-3.341-3.476,3.59,3.59,0,0,0-2.922,1.52h0Zm39.785,0h-2.862v13.468h2.862V95.375a1.79,1.79,0,0,1,1.916-1.8c.888,0,1.479.635,1.479,2v5.191h2.868v-5.8a3.191,3.191,0,0,0-3.341-3.476,3.59,3.59,0,0,0-2.922,1.52h0Zm-87.726.869a11.023,11.023,0,0,0-4.565-1.046c-3.12,0-5.134,1.542-5.134,3.87,0,4.838,6.852,4.033,6.852,6.245,0,.785-.688,1.24-1.972,1.24-1.485,0-2.669-.455-4.6-1.738v2.905a9.147,9.147,0,0,0,4.855,1.3c3,0,5.177-1.5,5.177-4.087,0-4.7-6.853-4.131-6.853-6.166,0-.666.768-1.1,1.973-1.1a10.438,10.438,0,0,1,4.268,1.2Zm97.292-1.046a1.58,1.58,0,1,0,1.577,1.578A1.584,1.584,0,0,0,483.079,87.121Zm1.442,4.542h-2.862v9.1h2.862Zm5.06-4.365h-2.862v9.879c0,1.793.493,3.67,3.476,3.77l.91-2.074c-1.224-.235-1.524-.79-1.524-2.173Zm16.937,4.365h-2.861v9.1h2.861v-4c0-1.7.884-2.588,2.354-2.588a3.319,3.319,0,0,1,1.7.665l.791-2.525a3.122,3.122,0,0,0-1.895-.828,3.221,3.221,0,0,0-2.946,2.279Zm14.655,5.018h-6.538a2.664,2.664,0,0,0,3,2.569,5.354,5.354,0,0,0,3.379-1.3v1.8a6.6,6.6,0,0,1-4.07,1.2c-3.2,0-5.271-1.854-5.271-4.7a4.59,4.59,0,0,1,4.8-4.756C519.117,91.487,521.308,93.363,521.173,96.681Zm-2.531-1.5a1.95,1.95,0,0,0-1.974-1.99,1.93,1.93,0,0,0-1.973,1.99Zm10.1-3.682a3.59,3.59,0,0,0-2.922,1.521V91.663h-2.863v9.114h2.863V95.35a1.8,1.8,0,0,1,1.916-1.762c.888,0,1.479.636,1.479,2v5.192h2.868v-5.8A3.192,3.192,0,0,0,528.743,91.5Zm-27.206-4.2h-2.863v4.757a5.384,5.384,0,0,0-2.374-.568,4.375,4.375,0,0,0-4.421,4.721c0,2.725,1.817,4.739,4.267,4.739a3.737,3.737,0,0,0,2.528-.909v.728h2.863ZM498.674,98.28a2.411,2.411,0,0,1-1.7.747c-1.346,0-2.19-1.1-2.19-2.761,0-1.817.844-2.866,2.288-2.866a3.17,3.17,0,0,1,1.6.53Zm-90.43-6.624H405.2l-1.956,5.018-1.935-5.018h-2.8l3.87,9.11h1.75Z" transform="translate(-19.094)" fill="#231f20"/><path d="M31.34,45.4V28.244c0-9.839,2.787-16.258,13.209-16.258,9.15,0,12.361,5.219,12.361,13.979v3.84H50.427v-3.42c0-5.4-.121-9.12-5.817-9.12-5.817,0-6.363,3.96-6.363,9.96V46.484c0,7.319,1.637,9.719,6.363,9.719,5.514,0,5.817-3.9,5.817-9.659v-3.6H56.91v3.6c0,8.94-2.727,15-12.361,15C34.127,61.543,31.34,54.463,31.34,45.4Z" transform="translate(-19.094)"/><path d="M62.545,45.764V27.345c0-9.6,3.514-15.359,13.451-15.359,9.877,0,13.392,5.819,13.392,15.359V45.823c0,9.541-3.515,15.72-13.392,15.72C66,61.543,62.545,55.423,62.545,45.764Zm19.935,1.5v-21.3c0-5.4-1.03-8.7-6.484-8.7-5.513,0-6.543,3.3-6.543,8.7v21.3c0,5.4,1.03,8.939,6.543,8.939C81.45,56.2,82.48,52.663,82.48,47.264Z" transform="translate(-19.094)"/><path d="M96.112,12.406h4.666l13.936,32.278V12.406h5.7V61h-4.363L101.929,27.824V61H96.112Z" transform="translate(-19.094)"/><path d="M128.1,12.406h4.665l13.937,32.278V12.406h5.7V61H148.04L133.922,27.824V61H128.1Z" transform="translate(-19.094)"/><path d="M160.1,12.406h19.025v5.039H166.945v16.08h9.876v4.8h-9.876v17.82h12.3V61H160.1Z" transform="translate(-19.094)"/><path d="M183.3,47.384l6.059-1.62c.364,5.22,1.7,10.439,6.968,10.439,3.515,0,5.393-1.979,5.393-5.7,0-4.38-2.242-6.659-5.332-9.359l-8.241-7.2c-3.272-2.821-4.726-5.88-4.726-10.741,0-7.139,4.424-11.218,11.513-11.218,7.816,0,11.573,4.019,12.361,12.539l-5.817,1.559c-.364-4.8-1.454-8.879-6.544-8.879-3.394,0-5.393,1.8-5.393,5.34,0,2.94.909,4.619,3.211,6.6l8.3,7.2c3.7,3.24,7.029,7.56,7.029,13.619,0,7.2-4.908,11.58-11.755,11.58C187.788,61.543,183.788,55.783,183.3,47.384Z" transform="translate(-19.094)"/><path d="M211.964,47.384l6.059-1.62c.364,5.22,1.7,10.439,6.968,10.439,3.514,0,5.393-1.979,5.393-5.7,0-4.38-2.242-6.659-5.332-9.359l-8.241-7.2c-3.272-2.821-4.726-5.88-4.726-10.741,0-7.139,4.423-11.218,11.513-11.218,7.816,0,11.573,4.019,12.36,12.539l-5.817,1.559c-.363-4.8-1.454-8.879-6.543-8.879-3.394,0-5.394,1.8-5.394,5.34,0,2.94.91,4.619,3.212,6.6l8.3,7.2c3.7,3.24,7.029,7.56,7.029,13.619,0,7.2-4.908,11.58-11.755,11.58C216.448,61.543,212.448,55.783,211.964,47.384Z" transform="translate(-19.094)"/><path d="M242.441,12.406h6.726V61h-6.726Z" transform="translate(-19.094)"/><path d="M256.2,45.764V27.345c0-9.6,3.514-15.359,13.451-15.359,9.877,0,13.391,5.819,13.391,15.359V45.823c0,9.541-3.514,15.72-13.391,15.72C259.648,61.543,256.2,55.423,256.2,45.764Zm19.934,1.5v-21.3c0-5.4-1.03-8.7-6.483-8.7-5.514,0-6.544,3.3-6.544,8.7v21.3c0,5.4,1.03,8.939,6.544,8.939C275.1,56.2,276.129,52.663,276.129,47.264Z" transform="translate(-19.094)"/><path d="M289.762,12.406h4.665l13.937,32.278V12.406h5.7V61H309.7L295.578,27.824V61h-5.816Z" transform="translate(-19.094)"/><path d="M322.118,12.406h6.726V61h-6.726Z" transform="translate(-19.094)"/><path d="M350.655,12.406H361.32c10.906,0,14.542,4.979,14.542,14.819V45.1c0,10.319-3.7,15.9-14,15.9h-11.21ZM361.38,56.144c7.453,0,7.574-4.441,7.574-12.3V28.065c0-7.5-.727-10.62-7.755-10.62h-3.7v38.7Z" transform="translate(-19.094)"/><path d="M382.951,12.406h6.725V61h-6.725Z" transform="translate(-19.094)"/><path d="M396.7,45.044V28.784c0-10.619,2.788-16.8,13.149-16.8,9.211,0,12.785,4.559,12.785,14.159v1.8h-6.423v-1.5c0-6.3-.726-9.18-6.24-9.18-6.06,0-6.423,4.5-6.423,10.5v18c0,7.019,1.211,10.439,6.6,10.439,5.332,0,6.665-3.78,6.665-11.1v-3.36H410.58v-4.8H423V61h-4.3l-.666-5.58c-1.333,3.6-3.878,6.18-8.726,6.18C400.1,61.6,396.7,55.543,396.7,45.044Z" transform="translate(-19.094)"/><path d="M430.393,12.406h6.726V61h-6.726Z" transform="translate(-19.094)"/><path d="M450.449,17.445h-8.3V12.406h23.207v5.039H457.3V61h-6.846Z" transform="translate(-19.094)"/><path d="M477.715,12.406h6.605L494.8,61h-6.483l-2.242-12.239h-10L473.716,61h-6.423Zm7.453,31.5-4.12-21.9-4.06,21.9Z" transform="translate(-19.094)"/><path d="M499.77,12.406h6.847V56.144H519.16V61H499.77Z" transform="translate(-19.094)"/><path d="M524.188,12.406h6.725V61h-6.725Z" transform="translate(-19.094)"/></g></g></svg>