<svg xmlns="http://www.w3.org/2000/svg" xmlns:xlink="http://www.w3.org/1999/xlink" width="696.308" height="137.423" viewBox="0 0 696.308 137.423">
  <defs>
    <clipPath id="clip-path">
      <rect id="Rettangolo_1224" data-name="Rettangolo 1224" width="696.308" height="137.423" fill="#fff"/>
    </clipPath>
  </defs>
  <g id="Raggruppa_1236" data-name="Raggruppa 1236" clip-path="url(#clip-path)">
    <path id="Tracciato_473" data-name="Tracciato 473" d="M322.973,87.055V96.02a34.606,34.606,0,0,0,0-69.212v8.964a25.642,25.642,0,0,1,0,51.283" transform="translate(87.99 7.304)" fill="#1d1d1b"/>
    <path id="Tracciato_474" data-name="Tracciato 474" d="M322.973,18.013v8.963a36.833,36.833,0,0,1,0,73.665v8.964a45.8,45.8,0,0,0,0-91.593" transform="translate(87.99 4.907)" fill="#1d1d1b"/>
    <path id="Tracciato_475" data-name="Tracciato 475" d="M315.928,17.987V109.6h8.964V17.987Z" transform="translate(86.071 4.9)" fill="#1d1d1b"/>
    <rect id="Rettangolo_1184" data-name="Rettangolo 1184" width="8.964" height="91.616" transform="translate(390.81 22.887)" fill="#1d1d1b"/>
    <path id="Tracciato_476" data-name="Tracciato 476" d="M138.418,73.746h19.14l5.713,15.7H132.7Zm9.57-26.295,8.759,24.068H139.228ZM158.7,18H156.35l-33.367,91.616h2.372l6.526-17.934h32.2l6.525,17.934h21.455Z" transform="translate(33.505 4.904)" fill="#1d1d1b"/>
    <path id="Tracciato_477" data-name="Tracciato 477" d="M152.738,17.981,119.394,109.6h2.371l33.344-91.616Z" transform="translate(32.527 4.899)" fill="#1d1d1b"/>
    <path id="Tracciato_478" data-name="Tracciato 478" d="M141.345,17.981,108,109.6h2.371l33.344-91.616Z" transform="translate(29.423 4.899)" fill="#1d1d1b"/>
    <path id="Tracciato_479" data-name="Tracciato 479" d="M145.143,17.981,111.8,109.6h2.371l33.344-91.616Z" transform="translate(30.458 4.899)" fill="#1d1d1b"/>
    <path id="Tracciato_480" data-name="Tracciato 480" d="M148.94,17.981,115.6,109.6h2.371l33.344-91.616Z" transform="translate(31.493 4.899)" fill="#1d1d1b"/>
    <path id="Tracciato_481" data-name="Tracciato 481" d="M284.576,18h-2.367l-33.338,91.59h2.367l32.167-88.358,32.167,88.358h2.379L284.6,18Z" transform="translate(67.802 4.904)" fill="#1d1d1b"/>
    <path id="Tracciato_482" data-name="Tracciato 482" d="M269.589,18h-2.38l-33.338,91.59h2.367l32.18-88.358,32.167,88.358h2.367L269.614,18Z" transform="translate(63.716 4.904)" fill="#1d1d1b"/>
    <path id="Tracciato_483" data-name="Tracciato 483" d="M278.073,62.278H294.78l-.8-2.227H277.272Z" transform="translate(75.539 16.36)" fill="#1d1d1b"/>
    <path id="Tracciato_484" data-name="Tracciato 484" d="M283.414,60.051H246.806l-.28.776-.534,1.451h38.237Z" transform="translate(67.018 16.36)" fill="#1d1d1b"/>
    <path id="Tracciato_485" data-name="Tracciato 485" d="M258.383,74.141H241.676l-.814,2.227h16.72Z" transform="translate(65.62 20.199)" fill="#1d1d1b"/>
    <path id="Tracciato_486" data-name="Tracciato 486" d="M256.676,74.141l-.814,2.227h51.279l-.8-2.227Z" transform="translate(69.707 20.199)" fill="#1d1d1b"/>
    <path id="Tracciato_487" data-name="Tracciato 487" d="M378.913,46.071V66.226H415V46.071Z" transform="translate(103.231 12.551)" fill="#1d1d1b"/>
    <rect id="Rettangolo_1185" data-name="Rettangolo 1185" width="40.705" height="2.227" transform="translate(482.143 31.863)" fill="#1d1d1b"/>
    <rect id="Rettangolo_1186" data-name="Rettangolo 1186" width="40.705" height="2.227" transform="translate(482.143 27.384)" fill="#1d1d1b"/>
    <rect id="Rettangolo_1187" data-name="Rettangolo 1187" width="40.705" height="2.227" transform="translate(482.143 36.355)" fill="#1d1d1b"/>
    <rect id="Rettangolo_1188" data-name="Rettangolo 1188" width="40.705" height="2.227" transform="translate(482.143 22.905)" fill="#1d1d1b"/>
    <rect id="Rettangolo_1189" data-name="Rettangolo 1189" width="40.705" height="2.227" transform="translate(482.143 40.834)" fill="#1d1d1b"/>
    <rect id="Rettangolo_1190" data-name="Rettangolo 1190" width="40.705" height="2.227" transform="translate(482.143 107.777)" fill="#1d1d1b"/>
    <path id="Tracciato_488" data-name="Tracciato 488" d="M378.913,90.458h40.705V88.231H378.913Z" transform="translate(103.231 24.037)" fill="#1d1d1b"/>
    <rect id="Rettangolo_1191" data-name="Rettangolo 1191" width="40.705" height="2.227" transform="translate(482.143 98.819)" fill="#1d1d1b"/>
    <rect id="Rettangolo_1192" data-name="Rettangolo 1192" width="40.705" height="2.227" transform="translate(482.143 94.34)" fill="#1d1d1b"/>
    <rect id="Rettangolo_1193" data-name="Rettangolo 1193" width="40.705" height="2.227" transform="translate(482.143 103.298)" fill="#1d1d1b"/>
    <rect id="Rettangolo_1194" data-name="Rettangolo 1194" width="2.227" height="91.59" transform="translate(479.917 22.905)" fill="#1d1d1b"/>
    <rect id="Rettangolo_1195" data-name="Rettangolo 1195" width="20.155" height="2.227" transform="translate(461.988 22.905)" fill="#1d1d1b"/>
    <rect id="Rettangolo_1196" data-name="Rettangolo 1196" width="20.155" height="2.227" transform="translate(461.988 112.269)" fill="#1d1d1b"/>
    <path id="Tracciato_489" data-name="Tracciato 489" d="M363.073,18v91.59H365.3V18h-2.227Z" transform="translate(98.915 4.904)" fill="#1d1d1b"/>
    <rect id="Rettangolo_1197" data-name="Rettangolo 1197" width="2.227" height="91.616" transform="translate(606.34 22.892)" fill="#1d1d1b"/>
    <path id="Tracciato_490" data-name="Tracciato 490" d="M465.5,66.709h2.619L437.939,17.991H417.46v91.616h20.155V55.74l6.8,10.968h2.62l-9.416-15.2V47.229l12.069,19.48h2.62L437.615,43V38.719l17.342,27.99h2.62L437.615,34.49V30.207l22.614,36.5h2.62L437.615,25.98V21.7Z" transform="translate(113.732 4.901)" fill="#1d1d1b"/>
    <path id="Tracciato_491" data-name="Tracciato 491" d="M455.217,56.279l0-.005,0,.005h.005Z" transform="translate(124.017 15.331)" fill="#1d1d1b"/>
    <path id="Tracciato_492" data-name="Tracciato 492" d="M467.492,17.991h-1.21L447.956,47.57l1.309,2.114,17.112-27.62v4.282L450.592,51.825,451.9,53.94l14.474-23.366v4.283L453.229,56.08l1.309,2.115,11.839-19.108v4.279L455.864,60.335l1.311,2.115,9.2-14.854v4.282L458.5,64.59,459.81,66.7l6.567-10.6v53.5H468.6V17.991Z" transform="translate(122.04 4.901)" fill="#1d1d1b"/>
    <path id="Tracciato_493" data-name="Tracciato 493" d="M235.857,81.921A25.664,25.664,0,1,1,234.785,44.7l1.023,1.022.048-.048h0L250.1,31.428a45.8,45.8,0,1,0,0,64.735Zm11.054-50.453L235.789,42.591a27.792,27.792,0,0,0-37.071.86l-11.1-11.1a43.465,43.465,0,0,1,59.291-.887m-60.859,2.467,11.1,11.1a27.814,27.814,0,0,0,.011,37.539l-11.1,11.1a43.452,43.452,0,0,1-.011-59.733m1.58,61.314,11.1-11.1a27.791,27.791,0,0,0,37.06.85l11.124,11.122a43.471,43.471,0,0,1-59.28-.875" transform="translate(46.843 4.904)" fill="#1d1d1b"/>
    <path id="Tracciato_494" data-name="Tracciato 494" d="M214.378,35.451a27.736,27.736,0,0,1,18.053,6.664l11.122-11.122a43.467,43.467,0,0,0-59.291.886l11.1,11.1a27.76,27.76,0,0,1,19.018-7.524" transform="translate(50.2 5.381)" fill="#1d1d1b"/>
    <path id="Tracciato_495" data-name="Tracciato 495" d="M191.115,80.628l1.571-1.571a30.06,30.06,0,0,1-.01-40.728L191.1,36.754a32.27,32.27,0,0,0,.013,43.874" transform="translate(49.722 10.013)" fill="#1d1d1b"/>
    <path id="Tracciato_496" data-name="Tracciato 496" d="M188.907,84.475l1.573-1.573a34.521,34.521,0,0,1-.01-47.064l-.788-.786-.786-.788a36.733,36.733,0,0,0,.011,50.21" transform="translate(48.762 9.335)" fill="#1d1d1b"/>
    <path id="Tracciato_497" data-name="Tracciato 497" d="M188.272,86.748a38.985,38.985,0,0,1-.011-53.4l-1.573-1.574a41.2,41.2,0,0,0,.01,56.546Z" transform="translate(47.803 8.657)" fill="#1d1d1b"/>
    <rect id="Rettangolo_1198" data-name="Rettangolo 1198" width="114.519" height="137.423" fill="#1d1d1b"/>
    <path id="Tracciato_498" data-name="Tracciato 498" d="M670.516,136.151H91.272V1.272H670.516ZM671.788,0H90V137.423H671.788Z" transform="translate(24.519)" fill="#1d1d1b"/>
    <rect id="Rettangolo_1199" data-name="Rettangolo 1199" width="2.175" height="60.683" transform="translate(42.591 53.837)" fill="#fff"/>
    <rect id="Rettangolo_1200" data-name="Rettangolo 1200" width="2.175" height="60.683" transform="translate(38.216 53.837)" fill="#fff"/>
    <rect id="Rettangolo_1201" data-name="Rettangolo 1201" width="2.175" height="60.683" transform="translate(33.842 53.837)" fill="#fff"/>
    <rect id="Rettangolo_1202" data-name="Rettangolo 1202" width="2.175" height="60.683" transform="translate(29.467 53.837)" fill="#fff"/>
    <rect id="Rettangolo_1203" data-name="Rettangolo 1203" width="2.175" height="60.683" transform="translate(25.091 53.837)" fill="#fff"/>
    <path id="Tracciato_499" data-name="Tracciato 499" d="M30.025,18A12.025,12.025,0,1,0,42.049,30.025,12.038,12.038,0,0,0,30.025,18m0,21.874a9.851,9.851,0,1,1,9.85-9.85,9.861,9.861,0,0,1-9.85,9.85" transform="translate(4.904 4.904)" fill="#fff"/>
    <path id="Tracciato_500" data-name="Tracciato 500" d="M29.088,21.438a7.65,7.65,0,1,0,7.65,7.65,7.659,7.659,0,0,0-7.65-7.65m0,13.125a5.475,5.475,0,1,1,5.475-5.475,5.481,5.481,0,0,1-5.475,5.475" transform="translate(5.841 5.841)" fill="#fff"/>
    <path id="Tracciato_501" data-name="Tracciato 501" d="M28.151,24.877a3.275,3.275,0,1,0,3.275,3.274,3.277,3.277,0,0,0-3.275-3.274m0,4.375a1.1,1.1,0,1,1,1.1-1.1,1.1,1.1,0,0,1-1.1,1.1" transform="translate(6.777 6.777)" fill="#fff"/>
    <path id="Tracciato_502" data-name="Tracciato 502" d="M67.2,89.469a9.145,9.145,0,0,1-9.135-9.14V57.293H74.515V55.118H58.068v-2.2H74.515V50.744H58.068v-2.2H74.515V46.369H58.068v-2.2H74.515V41.993H58.068v-2.2H74.515V37.619H58.068V19.737H55.893V80.329A11.323,11.323,0,0,0,67.2,91.644h9.486V89.469Z" transform="translate(15.227 5.377)" fill="#fff"/>
    <path id="Tracciato_503" data-name="Tracciato 503" d="M70.012,102.594a22.285,22.285,0,0,1-22.26-22.264V19.737H45.579V80.331a24.462,24.462,0,0,0,24.433,24.438H79.5v-2.173Z" transform="translate(12.417 5.377)" fill="#fff"/>
    <path id="Tracciato_504" data-name="Tracciato 504" d="M70.95,106.969a26.665,26.665,0,0,1-26.635-26.64V19.737H42.139V80.329A28.845,28.845,0,0,0,70.95,109.144h9.486v-2.173Z" transform="translate(11.48 5.377)" fill="#fff"/>
    <path id="Tracciato_505" data-name="Tracciato 505" d="M69.076,98.218A17.906,17.906,0,0,1,51.19,80.329V19.737H49.017V80.329a20.083,20.083,0,0,0,20.059,20.064h9.486V98.218Z" transform="translate(13.354 5.377)" fill="#fff"/>
    <path id="Tracciato_506" data-name="Tracciato 506" d="M68.139,93.844A13.525,13.525,0,0,1,54.63,80.329V19.737H52.455V80.329A15.7,15.7,0,0,0,68.139,96.018h9.486V93.844Z" transform="translate(14.291 5.377)" fill="#fff"/>
    <path id="Tracciato_507" data-name="Tracciato 507" d="M520.626,17.991l-8.542,23.468-8.542-23.468H482.089l19.283,52.981v38.635H503.6l.018-38.373L523,17.991Z" transform="translate(131.34 4.901)" fill="#1d1d1b"/>
    <path id="Tracciato_508" data-name="Tracciato 508" d="M524.111,17.991l-.276.758-.809,2.228-.706,1.937-6.014,16.52-6.818,18.732L508.3,61.423l-1.2,3.3-1.185,3.255-1.2,3.3-.434,1.192h0v37.141h2.228V72.863l.592-1.63,1.186-3.257,1.2-3.3,1.186-3.256,8-21.989,6.012-16.52.706-1.937.81-2.228.276-.758Z" transform="translate(137.386 4.901)" fill="#1d1d1b"/>
    <path id="Tracciato_509" data-name="Tracciato 509" d="M534.1,17.991h-2.371l-20.4,56.06v35.556h2.228V74.448Z" transform="translate(139.304 4.901)" fill="#1d1d1b"/>
    <path id="Tracciato_510" data-name="Tracciato 510" d="M322.973,87.055V96.02a34.606,34.606,0,0,0,0-69.212v8.964a25.642,25.642,0,0,1,0,51.283" transform="translate(87.99 7.304)" fill="#1d1d1b"/>
    <path id="Tracciato_511" data-name="Tracciato 511" d="M322.973,18.013v8.963a36.833,36.833,0,0,1,0,73.665v8.964a45.8,45.8,0,0,0,0-91.593" transform="translate(87.99 4.907)" fill="#1d1d1b"/>
    <path id="Tracciato_512" data-name="Tracciato 512" d="M315.928,17.987V109.6h8.964V17.987Z" transform="translate(86.071 4.9)" fill="#1d1d1b"/>
    <rect id="Rettangolo_1204" data-name="Rettangolo 1204" width="8.964" height="91.616" transform="translate(390.81 22.887)" fill="#1d1d1b"/>
    <path id="Tracciato_513" data-name="Tracciato 513" d="M138.418,73.746h19.14l5.713,15.7H132.7Zm9.57-26.295,8.759,24.068H139.228ZM158.7,18H156.35l-33.367,91.616h2.372l6.526-17.934h32.2l6.525,17.934h21.455Z" transform="translate(33.505 4.904)" fill="#1d1d1b"/>
    <path id="Tracciato_514" data-name="Tracciato 514" d="M152.738,17.981,119.394,109.6h2.371l33.344-91.616Z" transform="translate(32.527 4.899)" fill="#1d1d1b"/>
    <path id="Tracciato_515" data-name="Tracciato 515" d="M141.345,17.981,108,109.6h2.371l33.344-91.616Z" transform="translate(29.423 4.899)" fill="#1d1d1b"/>
    <path id="Tracciato_516" data-name="Tracciato 516" d="M145.143,17.981,111.8,109.6h2.371l33.344-91.616Z" transform="translate(30.458 4.899)" fill="#1d1d1b"/>
    <path id="Tracciato_517" data-name="Tracciato 517" d="M148.94,17.981,115.6,109.6h2.371l33.344-91.616Z" transform="translate(31.493 4.899)" fill="#1d1d1b"/>
    <path id="Tracciato_518" data-name="Tracciato 518" d="M284.576,18h-2.367l-33.338,91.59h2.367l32.167-88.358,32.167,88.358h2.379L284.6,18Z" transform="translate(67.802 4.904)" fill="#1d1d1b"/>
    <path id="Tracciato_519" data-name="Tracciato 519" d="M269.589,18h-2.38l-33.338,91.59h2.367l32.18-88.358,32.167,88.358h2.367L269.614,18Z" transform="translate(63.716 4.904)" fill="#1d1d1b"/>
    <path id="Tracciato_520" data-name="Tracciato 520" d="M278.073,62.278H294.78l-.8-2.227H277.272Z" transform="translate(75.539 16.36)" fill="#1d1d1b"/>
    <path id="Tracciato_521" data-name="Tracciato 521" d="M283.414,60.051H246.806l-.28.776-.534,1.451h38.237Z" transform="translate(67.018 16.36)" fill="#1d1d1b"/>
    <path id="Tracciato_522" data-name="Tracciato 522" d="M258.383,74.141H241.676l-.814,2.227h16.72Z" transform="translate(65.62 20.199)" fill="#1d1d1b"/>
    <path id="Tracciato_523" data-name="Tracciato 523" d="M256.676,74.141l-.814,2.227h51.279l-.8-2.227Z" transform="translate(69.707 20.199)" fill="#1d1d1b"/>
    <path id="Tracciato_524" data-name="Tracciato 524" d="M378.913,46.071V66.226H415V46.071Z" transform="translate(103.231 12.551)" fill="#1d1d1b"/>
    <rect id="Rettangolo_1205" data-name="Rettangolo 1205" width="40.705" height="2.227" transform="translate(482.143 31.863)" fill="#1d1d1b"/>
    <rect id="Rettangolo_1206" data-name="Rettangolo 1206" width="40.705" height="2.227" transform="translate(482.143 27.384)" fill="#1d1d1b"/>
    <rect id="Rettangolo_1207" data-name="Rettangolo 1207" width="40.705" height="2.227" transform="translate(482.143 36.355)" fill="#1d1d1b"/>
    <rect id="Rettangolo_1208" data-name="Rettangolo 1208" width="40.705" height="2.227" transform="translate(482.143 22.905)" fill="#1d1d1b"/>
    <rect id="Rettangolo_1209" data-name="Rettangolo 1209" width="40.705" height="2.227" transform="translate(482.143 40.834)" fill="#1d1d1b"/>
    <rect id="Rettangolo_1210" data-name="Rettangolo 1210" width="40.705" height="2.227" transform="translate(482.143 107.777)" fill="#1d1d1b"/>
    <path id="Tracciato_525" data-name="Tracciato 525" d="M378.913,90.458h40.705V88.231H378.913Z" transform="translate(103.231 24.037)" fill="#1d1d1b"/>
    <rect id="Rettangolo_1211" data-name="Rettangolo 1211" width="40.705" height="2.227" transform="translate(482.143 98.819)" fill="#1d1d1b"/>
    <rect id="Rettangolo_1212" data-name="Rettangolo 1212" width="40.705" height="2.227" transform="translate(482.143 94.34)" fill="#1d1d1b"/>
    <rect id="Rettangolo_1213" data-name="Rettangolo 1213" width="40.705" height="2.227" transform="translate(482.143 103.298)" fill="#1d1d1b"/>
    <rect id="Rettangolo_1214" data-name="Rettangolo 1214" width="2.227" height="91.59" transform="translate(479.917 22.905)" fill="#1d1d1b"/>
    <rect id="Rettangolo_1215" data-name="Rettangolo 1215" width="20.155" height="2.227" transform="translate(461.988 22.905)" fill="#1d1d1b"/>
    <rect id="Rettangolo_1216" data-name="Rettangolo 1216" width="20.155" height="2.227" transform="translate(461.988 112.269)" fill="#1d1d1b"/>
    <path id="Tracciato_526" data-name="Tracciato 526" d="M363.073,18v91.59H365.3V18h-2.227Z" transform="translate(98.915 4.904)" fill="#1d1d1b"/>
    <rect id="Rettangolo_1217" data-name="Rettangolo 1217" width="2.227" height="91.616" transform="translate(606.34 22.892)" fill="#1d1d1b"/>
    <path id="Tracciato_527" data-name="Tracciato 527" d="M465.5,66.709h2.619L437.939,17.991H417.46v91.616h20.155V55.74l6.8,10.968h2.62l-9.416-15.2V47.229l12.069,19.48h2.62L437.615,43V38.719l17.342,27.99h2.62L437.615,34.49V30.207l22.614,36.5h2.62L437.615,25.98V21.7Z" transform="translate(113.732 4.901)" fill="#1d1d1b"/>
    <path id="Tracciato_528" data-name="Tracciato 528" d="M455.217,56.279l0-.005,0,.005h.005Z" transform="translate(124.017 15.331)" fill="#1d1d1b"/>
    <path id="Tracciato_529" data-name="Tracciato 529" d="M467.492,17.991h-1.21L447.956,47.57l1.309,2.114,17.112-27.62v4.282L450.592,51.825,451.9,53.94l14.474-23.366v4.283L453.229,56.08l1.309,2.115,11.839-19.108v4.279L455.864,60.335l1.311,2.115,9.2-14.854v4.282L458.5,64.59,459.81,66.7l6.567-10.6v53.5H468.6V17.991Z" transform="translate(122.04 4.901)" fill="#1d1d1b"/>
    <path id="Tracciato_530" data-name="Tracciato 530" d="M235.857,81.921A25.664,25.664,0,1,1,234.785,44.7l1.023,1.022.048-.048h0L250.1,31.428a45.8,45.8,0,1,0,0,64.735Zm11.054-50.453L235.789,42.591a27.792,27.792,0,0,0-37.071.86l-11.1-11.1a43.465,43.465,0,0,1,59.291-.887m-60.859,2.467,11.1,11.1a27.814,27.814,0,0,0,.011,37.539l-11.1,11.1a43.452,43.452,0,0,1-.011-59.733m1.58,61.314,11.1-11.1a27.791,27.791,0,0,0,37.06.85l11.124,11.122a43.471,43.471,0,0,1-59.28-.875" transform="translate(46.843 4.904)" fill="#1d1d1b"/>
    <path id="Tracciato_531" data-name="Tracciato 531" d="M214.378,35.451a27.736,27.736,0,0,1,18.053,6.664l11.122-11.122a43.467,43.467,0,0,0-59.291.886l11.1,11.1a27.76,27.76,0,0,1,19.018-7.524" transform="translate(50.2 5.381)" fill="#1d1d1b"/>
    <path id="Tracciato_532" data-name="Tracciato 532" d="M191.115,80.628l1.571-1.571a30.06,30.06,0,0,1-.01-40.728L191.1,36.754a32.27,32.27,0,0,0,.013,43.874" transform="translate(49.722 10.013)" fill="#1d1d1b"/>
    <path id="Tracciato_533" data-name="Tracciato 533" d="M188.907,84.475l1.573-1.573a34.521,34.521,0,0,1-.01-47.064l-.788-.786-.786-.788a36.733,36.733,0,0,0,.011,50.21" transform="translate(48.762 9.335)" fill="#1d1d1b"/>
    <path id="Tracciato_534" data-name="Tracciato 534" d="M188.272,86.748a38.985,38.985,0,0,1-.011-53.4l-1.573-1.574a41.2,41.2,0,0,0,.01,56.546Z" transform="translate(47.803 8.657)" fill="#1d1d1b"/>
    <rect id="Rettangolo_1218" data-name="Rettangolo 1218" width="114.519" height="137.423" fill="#1d1d1b"/>
    <path id="Tracciato_535" data-name="Tracciato 535" d="M670.516,136.151H91.272V1.272H670.516ZM671.788,0H90V137.423H671.788Z" transform="translate(24.519)" fill="#1d1d1b"/>
    <rect id="Rettangolo_1219" data-name="Rettangolo 1219" width="2.175" height="60.683" transform="translate(42.591 53.837)" fill="#fff"/>
    <rect id="Rettangolo_1220" data-name="Rettangolo 1220" width="2.175" height="60.683" transform="translate(38.216 53.837)" fill="#fff"/>
    <rect id="Rettangolo_1221" data-name="Rettangolo 1221" width="2.175" height="60.683" transform="translate(33.842 53.837)" fill="#fff"/>
    <rect id="Rettangolo_1222" data-name="Rettangolo 1222" width="2.175" height="60.683" transform="translate(29.467 53.837)" fill="#fff"/>
    <rect id="Rettangolo_1223" data-name="Rettangolo 1223" width="2.175" height="60.683" transform="translate(25.091 53.837)" fill="#fff"/>
    <path id="Tracciato_536" data-name="Tracciato 536" d="M30.025,18A12.025,12.025,0,1,0,42.049,30.025,12.038,12.038,0,0,0,30.025,18m0,21.874a9.851,9.851,0,1,1,9.85-9.85,9.861,9.861,0,0,1-9.85,9.85" transform="translate(4.904 4.904)" fill="#fff"/>
    <path id="Tracciato_537" data-name="Tracciato 537" d="M29.088,21.438a7.65,7.65,0,1,0,7.65,7.65,7.659,7.659,0,0,0-7.65-7.65m0,13.125a5.475,5.475,0,1,1,5.475-5.475,5.481,5.481,0,0,1-5.475,5.475" transform="translate(5.841 5.841)" fill="#fff"/>
    <path id="Tracciato_538" data-name="Tracciato 538" d="M28.151,24.877a3.275,3.275,0,1,0,3.275,3.274,3.277,3.277,0,0,0-3.275-3.274m0,4.375a1.1,1.1,0,1,1,1.1-1.1,1.1,1.1,0,0,1-1.1,1.1" transform="translate(6.777 6.777)" fill="#fff"/>
    <path id="Tracciato_539" data-name="Tracciato 539" d="M67.2,89.469a9.145,9.145,0,0,1-9.135-9.14V57.293H74.515V55.118H58.068v-2.2H74.515V50.744H58.068v-2.2H74.515V46.369H58.068v-2.2H74.515V41.993H58.068v-2.2H74.515V37.619H58.068V19.737H55.893V80.329A11.323,11.323,0,0,0,67.2,91.644h9.486V89.469Z" transform="translate(15.227 5.377)" fill="#fff"/>
    <path id="Tracciato_540" data-name="Tracciato 540" d="M70.012,102.594a22.285,22.285,0,0,1-22.26-22.264V19.737H45.579V80.331a24.462,24.462,0,0,0,24.433,24.438H79.5v-2.173Z" transform="translate(12.417 5.377)" fill="#fff"/>
    <path id="Tracciato_541" data-name="Tracciato 541" d="M70.95,106.969a26.665,26.665,0,0,1-26.635-26.64V19.737H42.139V80.329A28.845,28.845,0,0,0,70.95,109.144h9.486v-2.173Z" transform="translate(11.48 5.377)" fill="#fff"/>
    <path id="Tracciato_542" data-name="Tracciato 542" d="M69.076,98.218A17.906,17.906,0,0,1,51.19,80.329V19.737H49.017V80.329a20.083,20.083,0,0,0,20.059,20.064h9.486V98.218Z" transform="translate(13.354 5.377)" fill="#fff"/>
    <path id="Tracciato_543" data-name="Tracciato 543" d="M68.139,93.844A13.525,13.525,0,0,1,54.63,80.329V19.737H52.455V80.329A15.7,15.7,0,0,0,68.139,96.018h9.486V93.844Z" transform="translate(14.291 5.377)" fill="#fff"/>
  </g>
</svg>
