<svg xmlns="http://www.w3.org/2000/svg" viewBox="0 0 996.02 173.39"><defs><style>.cls-1{fill:#cc2967;}</style></defs><g id="Layer_2" data-name="Layer 2"><g id="Layer_1-2" data-name="Layer 1"><path class="cls-1" d="M773,2.48A1.64,1.64,0,0,0,771.35.84H750a1.66,1.66,0,0,0-1.53,1L698.33,129.66a1.64,1.64,0,0,0,1.52,2.24h22.34a1.66,1.66,0,0,0,1.53-1.05L772.8,3.22a1.65,1.65,0,0,0,.18-.74"/><path class="cls-1" d="M816.49,2.72a1.64,1.64,0,0,0-1.63-1.65H793.31a1.65,1.65,0,0,0-1.53,1.05L741.64,129.89a1.65,1.65,0,0,0,1.53,2.24h22.52a1.66,1.66,0,0,0,1.54-1L816.31,3.45a1.64,1.64,0,0,0,.18-.73"/><path class="cls-1" d="M85.31,0H65.48a1.64,1.64,0,0,0-1.64,1.64V47.46C59.35,42.36,51.72,37.4,39,37.4,15.15,37.4.19,55.75,0,85.29c.18,29.33,15.51,48.27,39,48.27,13.3,0,21-5.45,25.43-10.81l1.66,7.94A1.65,1.65,0,0,0,67.74,132H85.31A1.65,1.65,0,0,0,87,130.35V1.64A1.65,1.65,0,0,0,85.31,0M43.91,58.25c18.61,0,20.62,18.92,20.62,27.06s-2,27.4-20.62,27.4c-17.79,0-20.45-17.17-20.45-27.4s2.66-27.06,20.45-27.06"/><path class="cls-1" d="M122.21,39H102.38a1.65,1.65,0,0,0-1.64,1.64v89.75a1.64,1.64,0,0,0,1.64,1.64h19.83a1.63,1.63,0,0,0,1.64-1.64V40.6A1.64,1.64,0,0,0,122.21,39"/><path class="cls-1" d="M112.3.35c-9,0-14.34,5.23-14.34,14S103.32,28.5,112.3,28.5s14.34-5.42,14.34-14.16-5.36-14-14.34-14m-5.51,2.49A16.48,16.48,0,0,1,112.3,2a16.48,16.48,0,0,0-5.51.85,10.59,10.59,0,0,0-4,2.45,10.59,10.59,0,0,1,4-2.45M99.6,14.34a13.62,13.62,0,0,1,1.82-7.27,13.62,13.62,0,0,0-1.82,7.27,13.85,13.85,0,0,0,1.82,7.32,13.85,13.85,0,0,1-1.82-7.32"/><path class="cls-1" d="M221.15,39H203.58A1.65,1.65,0,0,0,202,40.27l-1.66,7.94c-4.39-5.36-12.13-10.81-25.43-10.81-23.53,0-38.85,18.87-39,48.07.2,29.67,15.16,48.09,39,48.09,12.69,0,20.31-5,24.8-10.07v11.39c0,11.39-7.52,18.18-20.1,18.18-12.79,0-18-7.06-18.54-13.12a1.65,1.65,0,0,0-1.64-1.49H140.09a1.63,1.63,0,0,0-1.17.5,1.66,1.66,0,0,0-.47,1.19C139,160,155.92,173.39,180,173.39c25.85,0,42.83-15.34,42.83-38.17V40.6A1.64,1.64,0,0,0,221.15,39m-41.4,19.29c19.14,0,20.63,20.84,20.63,27.23,0,8.19-2,27.23-20.63,27.23-16.9,0-20.45-14.81-20.45-27.23,0-10.17,2.66-27.23,20.45-27.23"/><path class="cls-1" d="M248.14.35c-9,0-14.34,5.23-14.34,14s5.37,14.16,14.34,14.16,14.34-5.42,14.34-14.16-5.36-14-14.34-14"/><path class="cls-1" d="M258.06,39H238.23a1.64,1.64,0,0,0-1.64,1.64v89.75a1.63,1.63,0,0,0,1.64,1.64h19.83a1.63,1.63,0,0,0,1.64-1.64V40.6A1.64,1.64,0,0,0,258.06,39"/><path class="cls-1" d="M329.73,111.67H328a1.59,1.59,0,0,0-.48.07,27.63,27.63,0,0,1-8.22,1.15c-7.2,0-10-3-10-10.54V59.12h20.1A1.64,1.64,0,0,0,331,57.48V40.6A1.64,1.64,0,0,0,329.38,39h-20.1V16.77a1.64,1.64,0,0,0-1.64-1.64H305.9a1.62,1.62,0,0,0-.44.07l-17.22,4.87a1.64,1.64,0,0,0-1.2,1.58V39H273a1.64,1.64,0,0,0-1.64,1.64V57.48A1.64,1.64,0,0,0,273,59.12h13.14v46.71c0,18.14,9.77,27.73,28.26,27.73a57.94,57.94,0,0,0,15.79-2,1.63,1.63,0,0,0,1.15-1.56v-16.7a1.63,1.63,0,0,0-1.64-1.64"/><path class="cls-1" d="M380.64,37.4C358.12,37.4,343,50,343,68.78a1.64,1.64,0,0,0,1.65,1.64h18.78a1.64,1.64,0,0,0,1.64-1.6c.17-7.16,6.15-11.79,15.23-11.79,10.23,0,16.1,5,16.1,13.66v6.2a81.65,81.65,0,0,0-19.23-2.44c-24,0-38.34,11-38.34,29.47,0,17.73,13.24,29.64,32.95,29.64,11,0,20.08-3.69,25.92-10.45l1,7.46A1.64,1.64,0,0,0,400.3,132h17.39a1.63,1.63,0,0,0,1.64-1.64V70.52c0-19.81-15.55-33.12-38.69-33.12m-18.71,65.82c0-9.77,10.42-11.23,16.62-11.23a56.76,56.76,0,0,1,17.84,2.68v1.77c0,10.44-8.45,18-20.1,18-9,0-14.36-4.2-14.36-11.23"/><path class="cls-1" d="M454.6,0H434.77a1.63,1.63,0,0,0-1.64,1.64V130.35a1.64,1.64,0,0,0,1.64,1.65H454.6a1.65,1.65,0,0,0,1.64-1.65V1.64A1.64,1.64,0,0,0,454.6,0m0,1.64h0Z"/><path class="cls-1" d="M541.68,76.39l-15.34-3c-10.5-1.71-10.5-6.54-10.5-8.13,0-5.4,5-8.62,13.32-8.62,9.11,0,14.74,4.42,15.06,11.82a1.65,1.65,0,0,0,1.64,1.58h19.48A1.64,1.64,0,0,0,567,68.43c0-18.56-15.06-31-37.47-31-21.69,0-36.25,11.14-36.25,27.73,0,14.67,9.29,24.63,26.18,28.05l15.86,3c9.39,2,10.48,5.89,10.48,8.65,0,7.35-9.76,8.44-15.58,8.44-10.4,0-16.62-4.78-16.62-12.79a1.63,1.63,0,0,0-1.64-1.64H492.11a1.64,1.64,0,0,0-1.17.49,1.66,1.66,0,0,0-.47,1.19c.57,20.71,15.42,33.08,39.73,33.08,23.25,0,38.87-11.56,38.87-28.77,0-19.93-13.85-25.54-27.39-28.4M530.2,114.87h0"/><path class="cls-1" d="M621.94,81.39l35.39-37.93a1.64,1.64,0,0,0,.44-1.12V40.6A1.64,1.64,0,0,0,656.13,39H632.82a1.63,1.63,0,0,0-1.2.53l-30.9,33.45V1.64A1.63,1.63,0,0,0,599.08,0H580a1.64,1.64,0,0,0-1.65,1.64V130.35A1.65,1.65,0,0,0,580,132h19.13a1.64,1.64,0,0,0,1.64-1.65V90.89l32,40.48A1.63,1.63,0,0,0,634,132h23.48a1.64,1.64,0,0,0,1.64-1.65v-1.73a1.6,1.6,0,0,0-.36-1Z"/><path class="cls-1" d="M895.09,39H875.26a1.64,1.64,0,0,0-1.64,1.64V93.13c0,12.59-5.61,18.71-17.15,18.71s-17.14-6.12-17.14-18.71V40.6A1.65,1.65,0,0,0,837.69,39H817.86a1.64,1.64,0,0,0-1.64,1.64V96.26c0,22.55,15.8,37.13,40.25,37.13s40.26-14.58,40.26-37.13V40.6A1.65,1.65,0,0,0,895.09,39"/><path class="cls-1" d="M957,37.4c-13.17,0-20.87,5.45-25.26,10.81l-1.66-7.94a1.65,1.65,0,0,0-1.6-1.31H910.89a1.64,1.64,0,0,0-1.64,1.64V170.19a1.64,1.64,0,0,0,1.64,1.64h19.83a1.65,1.65,0,0,0,1.64-1.64V123.5c4.47,5.11,12.06,10.06,24.62,10.06,23.71,0,39-18.87,39-48.08S980.69,37.4,957,37.4m-4.87,20.85c17.94,0,20.62,17.06,20.62,27.23s-2.68,27.23-20.62,27.23c-18.46,0-20.45-19-20.45-27.23s2-27.23,20.45-27.23"/><path class="cls-1" d="M678.57,94.4c-8.65,0-13.81,5-13.81,13.48s5.16,13.64,13.81,13.64,13.81-5.23,13.81-13.64S687.22,94.4,678.57,94.4"/><path class="cls-1" d="M678.62,50.83c-8.64,0-13.81,5-13.81,13.48S670,78,678.62,78s13.81-5.23,13.81-13.64-5.16-13.48-13.81-13.48"/></g></g></svg>