<?xml version="1.0" encoding="UTF-8"?>
<svg width="166px" height="166px" viewBox="0 0 83 83" version="1.1" xmlns="http://www.w3.org/2000/svg" xmlns:xlink="http://www.w3.org/1999/xlink">
    <title>Logo di Repubblica Digitale</title>
    <g stroke="none" stroke-width="1" fill="none" fill-rule="evenodd">
        <g transform="translate(-79.000000, -171.000000)">
            <g transform="translate(79.354100, 171.650700)">
                <polygon fill="#0066CC" points="49.093 -1.42108547e-14 32.803 -1.42108547e-14 17.753 6.234 6.234 17.753 7.10542736e-15 32.803 7.10542736e-15 49.093 6.234 64.143 17.753 75.662 32.803 81.896 49.093 81.896 64.143 75.662 75.662 64.143 81.896 49.093 81.896 32.803 75.662 17.753 64.143 6.234"></polygon>
                <polygon fill="#FFFFFF" points="46.1921 15.5263 42.2121 18.6923 40.0591 13.1433"></polygon>
                <polygon fill="#CCE0F5" points="42.2117 18.6923 36.0957 22.7023 36.2987 14.9313 40.0597 13.1433"></polygon>
                <polygon fill="#FFFFFF" points="29.2058 14.9309 36.0958 22.7029 36.2988 14.9309"></polygon>
                <polygon fill="#CCE0F5" points="23.0964 24.2961 36.0954 22.7031 29.2054 14.9311 24.8694 18.3941"></polygon>
                <path d="M23.0964,24.2961 L21.6754,33.4841 L16.3124,29.2591 C16.3124,29.0391 17.7784,21.1741 17.7784,21.1741 L23.0964,24.2961 Z" fill="#CCE0F5"></path>
                <polygon fill="#FFFFFF" points="17.7781 21.1738 23.0961 24.2958 24.8701 18.3938"></polygon>
                <polygon fill="#66A3E0" points="39.8796 33.9379 36.7466 40.9879 51.8596 46.3499"></polygon>
                <polygon fill="#80B3E6" points="51.8601 46.3498 36.7461 40.9878 44.3441 47.4988 50.8271 51.3638 58.6651 51.8648"></polygon>
                <polygon fill="#CCE0F5" points="55.8665 43.5874 60.3035 50.4134 58.6645 51.8654 51.8605 46.3494"></polygon>
                <polygon fill="#CCE0F5" points="39.8796 33.9379 51.8596 46.3499 52.3326 40.4109 48.1216 32.5929"></polygon>
                <polygon fill="#80B3E6" points="23.0964 24.2961 29.5964 30.9761 21.6754 33.4841"></polygon>
                <polygon fill="#66A3E0" points="23.0964 24.2961 29.5964 30.9761 36.0044 27.9101 36.0954 22.7031"></polygon>
                <polygon fill="#80B3E6" points="36.0046 27.9104 41.3726 25.7934 43.2276 22.7024 36.0956 22.7024"></polygon>
                <polygon fill="#80B3E6" points="42.2117 18.6923 43.2277 22.7023 46.4757 21.9873 46.1917 15.5263"></polygon>
                <polygon fill="#FFFFFF" points="41.3723 25.7937 36.0043 27.9107 39.8793 33.9377 48.1213 32.5927"></polygon>
                <polygon fill="#CCE0F5" points="36.7463 40.988 29.5963 30.977 36.0043 27.91 39.8793 33.938"></polygon>
                <polygon fill="#66A3E0" points="59.7859 58.6272 54.3449 55.8872 60.9069 54.8472"></polygon>
                <polygon fill="#FFFFFF" points="58.6648 51.8652 50.8268 51.3632 54.3448 55.8872 60.9068 54.8472"></polygon>
                <polygon fill="#FFFFFF" points="52.3328 40.4106 56.3368 40.7636 56.8718 42.0876 55.8668 43.5876 51.8598 46.3496"></polygon>
                <polygon fill="#80B3E6" points="60.304 50.4133 64.177 52.4713 65.298 50.7393 62.267 46.4233 55.867 43.5873"></polygon>
                <polygon fill="#80B3E6" points="54.4021 61.3513 57.0661 62.8023 59.7861 58.6273 54.3451 55.8873"></polygon>
                <polygon fill="#66A3E0" points="51.3596 68.312 50.8896 64.172 47.2516 63.281 47.6926 69.323"></polygon>
                <polygon fill="#80B3E6" points="47.2517 63.2807 39.8797 64.8097 47.6927 69.3237"></polygon>
                <polygon fill="#CCE0F5" points="47.2517 63.2807 39.8797 64.8097 39.1537 61.4977 46.1057 60.7607"></polygon>
                <polygon fill="#FFFFFF" points="26.4153 46.3586 29.9773 44.9166 29.9773 57.6176 27.2853 51.7046"></polygon>
                <polygon fill="#CCE0F5" points="26.4153 46.3586 27.2853 51.7046 22.6693 51.3776 23.8373 45.3526"></polygon>
                <polygon fill="#80B3E6" points="24.2415 57.7114 29.9775 57.6174 27.2855 51.7044 22.6695 51.3774"></polygon>
                <polygon fill="#66A3E0" points="36.0955 22.7028 42.2115 18.6928 43.2275 22.7028"></polygon>
                <polygon fill="#FFFFFF" points="50.8894 64.1723 52.0214 58.9813 46.1064 60.7613 47.2514 63.2803"></polygon>
            </g>
        </g>
    </g>
</svg>
