<?xml version="1.0" encoding="UTF-8"?>
<svg width="160px" height="60px" viewBox="100 6 180 70" version="1.1" xmlns="http://www.w3.org/2000/svg" xmlns:xlink="http://www.w3.org/1999/xlink">
    <title>Logo di Repubblica Digitale</title>
    <g stroke="none" stroke-width="1" fill="none" fill-rule="evenodd">
        <g transform="translate(-79.000000, -171.000000)">
            <g transform="translate(79.354100, 171.650700)">
                <path d="M111.6604,27.4895 C114.4794,27.4895 115.8894,26.0195 115.8894,23.1095 C115.8894,20.1995 114.4794,18.7595 111.6304,18.7595 L106.2604,18.7595 L106.2604,27.4895 L111.6604,27.4895 Z M103.9504,16.7195 L111.6304,16.7195 C116.0394,16.7195 118.2604,18.6995 118.2604,23.0195 C118.2604,25.5395 117.3894,28.1195 114.5104,29.1095 L118.4394,37.4785 L115.8894,37.4785 L112.1394,29.5295 L111.6604,29.5295 L106.2604,29.5295 L106.2604,37.4785 L103.9504,37.4785 L103.9504,16.7195 Z" fill="#0066CC"></path>
                <polygon fill="#0066CC" points="122.4299 16.7199 135.0599 16.7199 135.0599 18.7599 124.7409 18.7599 124.7409 25.9289 133.2599 25.9289 133.2599 27.9389 124.7409 27.9389 124.7409 35.4389 135.0599 35.4389 135.0599 37.4789 122.4299 37.4789"></polygon>
                <path d="M141.3303,18.7595 L141.3303,28.4495 L146.5793,28.4495 C149.4303,28.4495 150.8693,26.7695 150.8693,23.4095 C150.8693,20.1995 149.5793,18.7595 146.5793,18.7595 L141.3303,18.7595 Z M139.0193,37.4785 L139.0193,16.7195 L146.6093,16.7195 C151.1403,16.7195 153.2393,18.8795 153.2393,23.4095 C153.2393,28.1195 151.0193,30.4885 146.6093,30.4885 L141.3303,30.4885 L141.3303,37.4785 L139.0193,37.4785 Z" fill="#0066CC"></path>
                <path d="M158.97,16.7199 L158.97,31.2389 C158.97,34.2389 160.589,35.7389 163.829,35.7389 C167.19,35.7389 168.899,34.3889 168.899,31.2389 L168.899,16.7199 L171.179,16.7199 L171.179,31.1789 C171.179,35.8289 168.689,37.7789 163.889,37.7789 C159.089,37.7789 156.659,35.8289 156.659,31.1789 L156.659,16.7199 L158.97,16.7199 Z" fill="#0066CC"></path>
                <path d="M183.9593,35.4392 C186.6883,35.4392 188.1293,34.4492 188.1293,31.5692 C188.1293,28.9292 186.1483,27.9392 183.8093,27.9392 L178.4393,27.9392 L178.4393,35.4392 L183.9593,35.4392 Z M183.7793,25.9292 C186.3293,25.9292 187.4693,24.6992 187.4693,22.2392 C187.4693,19.7792 186.2393,18.7592 183.5693,18.7592 L178.4393,18.7592 L178.4393,25.9292 L183.7793,25.9292 Z M176.1293,16.7202 L183.6593,16.7202 C187.7693,16.7202 189.8393,18.3702 189.8393,22.0002 C189.8393,24.6092 188.9383,25.9292 187.1693,26.7692 C189.3583,27.5192 190.4693,29.1692 190.4693,31.6592 C190.4693,35.8292 188.2193,37.4792 184.0493,37.4792 L176.1293,37.4792 L176.1293,16.7202 Z" fill="#0066CC"></path>
                <path d="M202.4387,35.4392 C205.1687,35.4392 206.6087,34.4492 206.6087,31.5692 C206.6087,28.9292 204.6287,27.9392 202.2897,27.9392 L196.9187,27.9392 L196.9187,35.4392 L202.4387,35.4392 Z M202.2587,25.9292 C204.8087,25.9292 205.9497,24.6992 205.9497,22.2392 C205.9497,19.7792 204.7187,18.7592 202.0487,18.7592 L196.9187,18.7592 L196.9187,25.9292 L202.2587,25.9292 Z M194.6097,16.7202 L202.1387,16.7202 C206.2497,16.7202 208.3187,18.3702 208.3187,22.0002 C208.3187,24.6092 207.4187,25.9292 205.6487,26.7692 C207.8387,27.5192 208.9487,29.1692 208.9487,31.6592 C208.9487,35.8292 206.6987,37.4792 202.5297,37.4792 L194.6097,37.4792 L194.6097,16.7202 Z" fill="#0066CC"></path>
                <polygon fill="#0066CC" points="224.5188 37.4787 213.0888 37.4787 213.0888 16.7197 215.3998 16.7197 215.3998 35.4087 224.5188 35.4087"></polygon>
                <polygon fill="#0066CC" points="227.4589 37.4793 229.7689 37.4793 229.7689 16.7203 227.4589 16.7203"></polygon>
                <path d="M247.3782,37.1486 C245.1882,37.5986 243.3282,37.8386 241.7082,37.8386 C236.3682,37.8386 234.0592,35.0486 234.0592,27.1286 C234.0592,20.1096 235.4392,16.4196 241.7682,16.4196 C243.3282,16.4196 245.1582,16.6296 247.3782,17.0796 L247.2882,19.0296 C245.2772,18.6696 243.4782,18.4896 241.8882,18.4896 C237.4792,18.4896 236.4582,20.8296 236.4582,27.1596 C236.4582,33.4886 237.6892,35.7686 242.1282,35.7686 C243.5382,35.7686 245.2182,35.5586 247.2882,35.1696 L247.3782,37.1486 Z" fill="#0066CC"></path>
                <path d="M261.4778,30.0691 L258.3288,18.6991 L256.7678,18.6991 L253.6188,30.0691 L261.4778,30.0691 Z M255.0288,16.7201 L260.0678,16.7201 L265.7678,37.4791 L263.4878,37.4791 L261.9878,32.1391 L253.1088,32.1391 L251.6088,37.4791 L249.3288,37.4791 L255.0288,16.7201 Z" fill="#0066CC"></path>
                <path d="M112.1863,50.0837 L110.9563,50.0837 L110.9563,59.4737 L112.1863,59.4737 C115.0063,59.4737 115.2163,57.6727 115.2163,55.2137 C115.2163,51.6137 114.7363,50.0837 112.1863,50.0837 L112.1863,50.0837 Z M103.9963,65.1427 L103.9963,44.4137 L112.4863,44.4137 C119.4153,44.4137 122.2353,48.0137 122.2353,54.8537 C122.2353,61.7227 119.5363,65.1427 112.7863,65.1427 L103.9963,65.1427 Z" fill="#0066CC"></path>
                <polygon fill="#0066CC" points="123.6159 65.1723 130.5759 65.1723 130.5759 44.4133 123.6159 44.4133"></polygon>
                <path d="M149.2351,53.3532 L149.2351,64.5732 C145.6051,65.1432 142.9351,65.4432 141.1951,65.4432 C133.9961,65.4432 131.9851,62.4132 131.9851,55.0932 C131.9851,47.3832 134.5961,44.1142 141.4351,44.1142 C143.9851,44.1142 146.5951,44.5342 149.0851,45.1342 L149.0851,50.3832 C145.8451,50.0832 143.7751,49.9932 142.4551,49.9932 C139.5751,49.9932 138.9751,50.9232 138.9751,55.2732 C138.9751,58.3932 139.5461,59.7132 141.7351,59.7132 L142.7551,59.7132 L142.7551,58.2132 L141.8551,58.2132 L141.8251,53.3532 L149.2351,53.3532 Z" fill="#0066CC"></path>
                <polygon fill="#0066CC" points="150.9459 65.1723 157.9059 65.1723 157.9059 44.4133 150.9459 44.4133"></polygon>
                <polygon fill="#0066CC" points="174.075 44.4138 174.075 50.0838 170.175 50.0838 170.175 65.1728 163.215 65.1728 163.215 50.0838 159.075 50.0838 159.075 44.4138"></polygon>
                <path d="M184.0052,57.5534 L182.9252,49.9034 L182.1752,49.9034 L181.0352,57.5534 L184.0052,57.5534 Z M172.8162,65.1734 L177.2552,44.4434 L187.7852,44.4434 L192.3152,65.1734 L185.2952,65.1734 L184.7252,62.8634 L180.1352,62.8634 L179.6552,65.1734 L172.8162,65.1734 Z" fill="#0066CC"></path>
                <polygon fill="#0066CC" points="206.5344 65.1731 193.0344 65.1731 193.0344 44.4141 199.9944 44.4141 199.9944 59.5031 206.5344 59.5031"></polygon>
                <polygon fill="#0066CC" points="207.7049 44.4138 222.7649 44.4138 222.7649 49.9638 214.6649 49.9638 214.6649 51.9138 220.9639 51.9138 220.9639 57.6728 214.6649 57.6728 214.6649 59.5928 222.7649 59.5928 222.7649 65.1428 207.7049 65.1428"></polygon>
            </g>
        </g>
    </g>
</svg>
